<?xml version="1.0" standalone="no"?>
<!DOCTYPE svg PUBLIC "-//W3C//DTD SVG 20010904//EN"
 "http://www.w3.org/TR/2001/REC-SVG-20010904/DTD/svg10.dtd">
<svg version="1.0" xmlns="http://www.w3.org/2000/svg"
 width="260.000000pt" height="260.000000pt" viewBox="0 0 260.000000 260.000000"
 preserveAspectRatio="xMidYMid meet">
<metadata>
Created by potrace 1.11, written by Peter Selinger 2001-2013
</metadata>
<g transform="translate(0.000000,260.000000) scale(0.100000,-0.100000)"
fill="#000000" stroke="none">
<path d="M0 1300 l0 -1300 1300 0 1300 0 0 1300 0 1300 -1300 0 -1300 0 0
-1300z m928 960 c135 -22 277 -106 356 -209 l38 -51 28 38 c43 59 133 135 203
170 226 112 485 68 662 -112 114 -116 165 -243 165 -411 0 -331 -147 -600
-505 -924 -66 -60 -216 -190 -334 -290 -186 -157 -216 -179 -230 -168 -9 8
-120 97 -246 199 -362 292 -489 415 -613 591 -159 227 -227 537 -165 756 41
150 159 291 295 356 122 58 225 74 346 55z"/>
<path d="M755 2189 c-79 -12 -188 -65 -250 -122 l-50 -46 93 -1 92 0 0 -130 0
-130 258 0 c141 0 348 -3 460 -7 203 -6 203 -6 216 -31 12 -23 15 -18 56 94
24 66 51 139 60 163 l17 43 53 -141 53 -141 249 0 249 0 -7 38 c-19 107 -84
223 -162 293 -62 55 -167 104 -254 120 -205 37 -429 -79 -528 -273 -19 -38
-37 -68 -40 -67 -3 0 -18 27 -34 60 -44 93 -132 181 -230 229 -48 23 -108 44
-146 50 -72 11 -71 11 -155 -1z"/>
<path d="M396 1928 c-9 -13 -25 -52 -36 -87 -23 -73 -26 -238 -7 -331 l12 -55
83 -3 c52 -2 82 1 82 8 0 5 20 10 45 10 38 0 45 3 45 20 0 19 7 20 95 20 l95
0 0 -95 0 -95 -95 0 c-78 0 -95 3 -95 15 0 11 -12 15 -45 15 -33 0 -45 4 -45
15 0 12 -14 15 -70 15 -41 0 -70 -4 -70 -10 0 -42 118 -245 197 -337 l45 -53
178 0 179 0 15 53 c9 28 33 117 55 197 21 80 41 138 45 130 3 -8 29 -103 57
-210 28 -107 54 -201 58 -209 5 -8 23 23 51 88 24 56 46 101 50 101 3 0 24
-33 47 -72 l40 -73 296 -3 295 -2 60 73 c60 73 122 164 122 179 0 4 -61 8
-135 8 -131 0 -136 -1 -144 -22 -27 -71 -124 -108 -190 -73 -52 26 -81 71 -81
123 0 86 56 145 139 146 56 1 94 -21 123 -70 l20 -34 158 0 159 0 21 57 c25
67 46 156 55 235 l7 58 -273 2 -274 3 -29 74 -29 73 -17 -43 c-9 -24 -36 -97
-60 -162 -23 -65 -45 -116 -47 -113 -2 2 -19 44 -37 93 l-33 88 -469 5 -469 5
-5 130 -5 130 -77 3 c-70 3 -78 1 -92 -20z"/>
<path d="M1716 1318 c-24 -34 -20 -73 10 -97 15 -12 34 -21 44 -21 10 0 29 9
44 21 30 24 34 63 10 97 -21 31 -87 31 -108 0z"/>
<path d="M1071 1000 l-24 -90 -168 0 c-93 0 -169 -2 -169 -4 0 -25 598 -522
619 -514 17 6 431 359 515 440 l81 77 -281 1 -282 0 -12 30 c-7 17 -16 30 -20
30 -4 0 -25 -39 -45 -87 -81 -188 -76 -180 -85 -158 -4 11 -26 94 -50 185 -24
91 -46 168 -50 173 -3 4 -17 -33 -29 -83z"/>
</g>
</svg>
