<?xml version="1.0" encoding="UTF-8" standalone="no"?>
<!-- Generator: Adobe Illustrator 23.0.3, SVG Export Plug-In . SVG Version: 6.00 Build 0)  -->

<svg
   xmlns:dc="http://purl.org/dc/elements/1.1/"
   xmlns:cc="http://creativecommons.org/ns#"
   xmlns:rdf="http://www.w3.org/1999/02/22-rdf-syntax-ns#"
   xmlns:svg="http://www.w3.org/2000/svg"
   xmlns="http://www.w3.org/2000/svg"
   xmlns:sodipodi="http://sodipodi.sourceforge.net/DTD/sodipodi-0.dtd"
   xmlns:inkscape="http://www.inkscape.org/namespaces/inkscape"
   version="1.1"
   id="Layer_1"
   x="0px"
   y="0px"
   viewBox="0 0 460 200.00001"
   xml:space="preserve"
   sodipodi:docname="main_logo.svg"
   inkscape:version="0.92.3 (2405546, 2018-03-11)"
   width="460"
   height="200"><metadata
   id="metadata37"><rdf:RDF><cc:Work
       rdf:about=""><dc:format>image/svg+xml</dc:format><dc:type
         rdf:resource="http://purl.org/dc/dcmitype/StillImage" /><dc:title></dc:title></cc:Work></rdf:RDF></metadata><defs
   id="defs35" /><sodipodi:namedview
   pagecolor="#ffffff"
   bordercolor="#666666"
   borderopacity="1"
   objecttolerance="10"
   gridtolerance="10"
   guidetolerance="10"
   inkscape:pageopacity="1"
   inkscape:pageshadow="2"
   inkscape:window-width="3840"
   inkscape:window-height="2049"
   id="namedview33"
   showgrid="false"
   inkscape:zoom="2.1625585"
   inkscape:cx="145.38126"
   inkscape:cy="47.871874"
   inkscape:window-x="0"
   inkscape:window-y="55"
   inkscape:window-maximized="1"
   inkscape:current-layer="g30" />
<style
   type="text/css"
   id="style2">
	.st0{fill:#129B8C;}
</style>
<g
   id="g30"
   transform="translate(0,-18.259995)">
	<path
   style="opacity:1;vector-effect:none;fill:#44988a;fill-opacity:1;stroke:none;stroke-width:1.09772122;stroke-linecap:butt;stroke-linejoin:miter;stroke-miterlimit:4;stroke-dasharray:none;stroke-dashoffset:0;stroke-opacity:1"
   d="m 0,18.25999 c 153.33334,0 306.66666,0 460,0 0,66.666672 0,133.33334 0,200 -153.33334,0 -306.66666,0 -460,0 0,-66.66666 0,-133.333328 0,-200 z"
   id="rect940"
   inkscape:connector-curvature="0" />
	
	
	
	
	
	
	
	
	
	
	
	<g
   id="g848"
   transform="translate(-4.9049589,8.329995)"><path
     inkscape:connector-curvature="0"
     style="fill:#ffffff;fill-opacity:1"
     id="path4"
     d="m 251.77,70.33 c 0,-2.54 -0.44,-4.71 -1.32,-6.52 -0.88,-1.8 -2.13,-3.28 -3.74,-4.44 -1.62,-1.16 -3.56,-1.99 -5.82,-2.5 -2.27,-0.51 -4.81,-0.76 -7.62,-0.76 h -16.01 v 49.08 H 226 V 84.88 h 6.72 c 2.59,0 5.04,-0.25 7.35,-0.76 2.31,-0.51 4.33,-1.33 6.06,-2.46 1.73,-1.13 3.11,-2.62 4.13,-4.47 1,-1.85 1.51,-4.14 1.51,-6.86 z m -9.71,3.6 c -0.6,0.92 -1.41,1.65 -2.43,2.18 -1.02,0.53 -2.17,0.9 -3.47,1.11 -1.29,0.21 -2.66,0.31 -4.09,0.31 h -6.1 V 63.46 h 6.38 c 1.34,0 2.65,0.08 3.92,0.24 1.27,0.16 2.4,0.5 3.4,1 0.99,0.51 1.79,1.21 2.39,2.11 0.6,0.9 0.9,2.07 0.9,3.5 0,1.49 -0.3,2.7 -0.9,3.62 z"
     class="st0" /><path
     inkscape:connector-curvature="0"
     style="fill:#ffffff;fill-opacity:1"
     id="path6"
     d="m 261.33,87.38 c 0,-0.6 0.11,-1.41 0.35,-2.43 0.23,-1.02 0.67,-2.01 1.32,-2.98 0.65,-0.97 1.55,-1.8 2.7,-2.5 1.15,-0.69 2.68,-1.04 4.57,-1.04 0.37,0 0.75,0.02 1.15,0.07 0.39,0.05 0.87,0.14 1.42,0.28 v -7.62 c -0.28,-0.09 -0.6,-0.15 -0.97,-0.17 -0.37,-0.02 -0.72,-0.04 -1.04,-0.04 -2.22,0 -4.16,0.6 -5.82,1.8 -1.66,1.2 -2.96,2.77 -3.88,4.71 h -0.14 v -5.55 h -7.97 v 33.27 h 8.32 v -17.8 z"
     class="st0" /><rect
     style="fill:#ffffff;fill-opacity:1"
     id="rect8"
     height="33.27"
     width="8.3199997"
     class="st0"
     y="71.919998"
     x="275.47" /><path
     inkscape:connector-curvature="0"
     style="fill:#ffffff;fill-opacity:1"
     id="path10"
     d="m 280.37,65.61 c 1.52,0 2.81,-0.47 3.85,-1.42 1.04,-0.95 1.56,-2.14 1.56,-3.57 0,-1.43 -0.52,-2.62 -1.56,-3.57 -1.04,-0.95 -2.32,-1.42 -3.85,-1.42 -1.53,0 -2.79,0.5 -3.78,1.49 -0.99,0.99 -1.49,2.16 -1.49,3.5 0,1.34 0.5,2.51 1.49,3.5 0.99,0.99 2.25,1.49 3.78,1.49 z"
     class="st0" /><polygon
     style="fill:#ffffff;fill-opacity:1"
     id="polygon12"
     points="303.83,96.18 295.09,71.92 286.01,71.92 299.46,105.19 308.33,105.19 321.57,71.92 312.77,71.92 303.96,96.18 "
     class="st0" /><path
     inkscape:connector-curvature="0"
     style="fill:#ffffff;fill-opacity:1"
     id="path14"
     d="m 331.48,78.57 c 1.62,-0.74 3.3,-1.11 5.06,-1.11 2.08,0 3.87,0.5 5.37,1.49 1.5,0.99 2.25,2.53 2.25,4.61 v 0.83 c -2.59,0 -5.23,0.13 -7.94,0.38 -2.7,0.25 -5.17,0.77 -7.38,1.56 -2.22,0.79 -4.03,1.92 -5.44,3.4 -1.41,1.48 -2.12,3.47 -2.12,5.96 0,1.94 0.4,3.57 1.21,4.89 0.81,1.32 1.83,2.38 3.05,3.19 1.22,0.81 2.56,1.39 4.02,1.73 1.46,0.35 2.85,0.52 4.19,0.52 2.36,0 4.46,-0.47 6.31,-1.42 1.85,-0.95 3.19,-2.16 4.02,-3.64 h 0.21 v 4.23 h 7.76 V 84.95 c 0,-1.66 -0.22,-3.33 -0.66,-4.99 -0.44,-1.66 -1.21,-3.17 -2.32,-4.51 -1.11,-1.34 -2.62,-2.43 -4.54,-3.26 -1.92,-0.83 -4.36,-1.25 -7.31,-1.25 -2.54,0 -5.05,0.44 -7.52,1.32 -2.47,0.88 -4.66,2.19 -6.55,3.95 l 4.3,5.06 c 1.08,-1.05 2.41,-1.96 4.03,-2.7 z m 12.69,12.62 c 0,2.63 -0.74,4.71 -2.22,6.24 -1.48,1.52 -3.65,2.29 -6.52,2.29 -0.69,0 -1.39,-0.07 -2.08,-0.21 -0.69,-0.14 -1.32,-0.37 -1.87,-0.69 -0.55,-0.32 -1.01,-0.75 -1.35,-1.28 -0.35,-0.53 -0.52,-1.19 -0.52,-1.98 0,-1.25 0.42,-2.23 1.25,-2.95 0.83,-0.72 1.87,-1.27 3.12,-1.66 1.25,-0.39 2.61,-0.65 4.09,-0.76 1.48,-0.12 2.89,-0.17 4.23,-0.17 h 1.87 z"
     class="st0" /><path
     inkscape:connector-curvature="0"
     style="fill:#ffffff;fill-opacity:1"
     id="path16"
     d="m 367.84,81.28 c 0.76,-1.02 1.72,-1.84 2.88,-2.46 1.15,-0.62 2.5,-0.94 4.02,-0.94 1.34,0 2.66,0.31 3.95,0.94 1.29,0.62 2.26,1.4 2.91,2.32 l 5.68,-4.99 c -1.34,-1.62 -3.15,-2.89 -5.44,-3.81 -2.29,-0.92 -4.66,-1.39 -7.1,-1.39 -2.45,0 -4.75,0.42 -6.9,1.25 -2.15,0.83 -4.03,2.01 -5.65,3.54 -1.62,1.52 -2.9,3.37 -3.85,5.55 -0.95,2.17 -1.42,4.6 -1.42,7.28 0,2.77 0.47,5.25 1.42,7.42 0.95,2.17 2.24,4.02 3.88,5.55 1.64,1.53 3.56,2.68 5.75,3.47 2.19,0.78 4.52,1.18 6.97,1.18 2.5,0 4.82,-0.41 6.97,-1.21 2.15,-0.8 3.92,-1.95 5.3,-3.43 l -5.2,-5.27 c -0.79,0.97 -1.83,1.71 -3.12,2.22 -1.29,0.51 -2.59,0.76 -3.88,0.76 -1.57,0 -2.95,-0.31 -4.13,-0.94 -1.18,-0.62 -2.16,-1.44 -2.95,-2.46 -0.79,-1.02 -1.38,-2.16 -1.77,-3.43 -0.39,-1.27 -0.59,-2.55 -0.59,-3.85 0,-1.29 0.18,-2.58 0.55,-3.85 0.39,-1.29 0.96,-2.44 1.72,-3.45 z"
     class="st0" /><path
     inkscape:connector-curvature="0"
     style="fill:#ffffff;fill-opacity:1"
     id="path18"
     d="m 414.11,71.92 -8.25,24.19 h -0.14 l -9.29,-24.19 h -9.22 l 14.28,33.27 -1.66,4.23 c -0.37,0.88 -0.72,1.64 -1.04,2.29 -0.32,0.65 -0.69,1.19 -1.11,1.63 -0.41,0.44 -0.92,0.76 -1.52,0.97 -0.6,0.21 -1.34,0.31 -2.22,0.31 -0.46,0 -0.96,-0.03 -1.49,-0.1 -0.53,-0.07 -1.07,-0.2 -1.63,-0.38 l -0.69,7.21 c 0.74,0.18 1.47,0.31 2.18,0.38 0.72,0.07 1.42,0.1 2.12,0.1 1.85,0 3.43,-0.21 4.75,-0.62 1.32,-0.42 2.46,-1.03 3.43,-1.84 0.97,-0.81 1.8,-1.8 2.5,-2.98 0.69,-1.18 1.34,-2.53 1.94,-4.06 l 15.74,-40.41 z"
     class="st0" /><path
     inkscape:connector-curvature="0"
     style="fill:#ffffff;fill-opacity:1"
     id="path20"
     d="m 242,140.07 c -1.38,-1.04 -2.94,-1.88 -4.67,-2.53 -1.73,-0.65 -3.45,-1.25 -5.15,-1.8 -1.38,-0.46 -2.71,-0.92 -3.97,-1.39 -1.27,-0.46 -2.4,-1.05 -3.39,-1.77 -0.99,-0.72 -1.79,-1.58 -2.39,-2.6 -0.6,-1.02 -0.9,-2.31 -0.9,-3.88 0,-1.57 0.31,-2.93 0.94,-4.09 0.62,-1.15 1.44,-2.11 2.46,-2.88 1.01,-0.76 2.15,-1.33 3.4,-1.7 1.25,-0.37 2.47,-0.55 3.67,-0.55 2.36,0 4.37,0.45 6.03,1.35 1.66,0.9 3.02,2.09 4.09,3.57 l 3.95,-3.19 c -1.2,-1.62 -2.98,-3.02 -5.34,-4.19 -2.36,-1.18 -5.2,-1.77 -8.53,-1.77 -1.8,0 -3.63,0.25 -5.48,0.76 -1.85,0.51 -3.53,1.32 -5.06,2.43 -1.52,1.11 -2.76,2.52 -3.71,4.23 -0.95,1.71 -1.42,3.74 -1.42,6.1 0,2.22 0.38,4.09 1.14,5.61 0.76,1.53 1.77,2.81 3.02,3.85 1.25,1.04 2.66,1.88 4.23,2.53 1.57,0.65 3.16,1.22 4.78,1.73 1.57,0.51 3.07,1.02 4.51,1.53 1.43,0.51 2.7,1.14 3.81,1.91 1.11,0.76 2,1.71 2.67,2.84 0.67,1.13 1.01,2.55 1.01,4.26 0,1.57 -0.34,2.95 -1.01,4.13 -0.67,1.18 -1.52,2.17 -2.56,2.98 -1.04,0.81 -2.21,1.41 -3.5,1.8 -1.29,0.39 -2.56,0.59 -3.81,0.59 -2.59,0 -4.84,-0.59 -6.76,-1.77 -1.92,-1.18 -3.41,-2.65 -4.47,-4.4 l -4.3,3.19 c 0.88,1.2 1.9,2.26 3.05,3.19 1.15,0.92 2.4,1.69 3.74,2.29 1.34,0.6 2.75,1.05 4.23,1.35 1.48,0.3 2.96,0.45 4.44,0.45 1.94,0 3.87,-0.28 5.79,-0.83 1.92,-0.55 3.62,-1.41 5.12,-2.56 1.49,-1.16 2.7,-2.62 3.64,-4.4 0.93,-1.78 1.4,-3.89 1.4,-6.34 0,-2.45 -0.44,-4.47 -1.32,-6.07 -0.87,-1.61 -1.99,-2.92 -3.38,-3.96 z"
     class="st0" /><path
     inkscape:connector-curvature="0"
     style="fill:#ffffff;fill-opacity:1"
     id="path22"
     d="m 277.48,134.45 c -1.29,-1.46 -2.91,-2.61 -4.85,-3.47 -1.94,-0.85 -4.18,-1.28 -6.72,-1.28 -2.31,0 -4.46,0.43 -6.45,1.28 -1.99,0.86 -3.72,2.05 -5.2,3.57 -1.48,1.53 -2.64,3.33 -3.47,5.41 -0.83,2.08 -1.25,4.34 -1.25,6.79 0,2.45 0.43,4.71 1.28,6.79 0.86,2.08 2.02,3.88 3.5,5.41 1.48,1.53 3.25,2.72 5.3,3.57 2.06,0.85 4.29,1.28 6.69,1.28 2.68,0 5.19,-0.53 7.52,-1.59 2.33,-1.06 4.47,-2.82 6.41,-5.27 l -3.54,-2.77 c -0.92,1.48 -2.28,2.78 -4.06,3.92 -1.78,1.13 -3.89,1.7 -6.34,1.7 -1.66,0 -3.21,-0.31 -4.65,-0.94 -1.43,-0.62 -2.68,-1.47 -3.74,-2.53 -1.06,-1.06 -1.9,-2.31 -2.5,-3.74 -0.6,-1.43 -0.92,-2.96 -0.97,-4.58 h 26.9 c 0.05,-0.42 0.07,-0.81 0.07,-1.18 0,-0.37 0,-0.72 0,-1.04 0,-2.22 -0.34,-4.3 -1.01,-6.24 -0.64,-1.93 -1.62,-3.63 -2.92,-5.09 z m -22.94,9.81 c 0.09,-1.39 0.44,-2.71 1.04,-3.99 0.6,-1.27 1.41,-2.4 2.43,-3.4 1.02,-1 2.19,-1.78 3.54,-2.36 1.34,-0.58 2.79,-0.87 4.37,-0.87 3.37,0 5.97,1.01 7.8,3.02 1.83,2.01 2.81,4.54 2.95,7.59 h -22.13 z"
     class="st0" /><path
     inkscape:connector-curvature="0"
     style="fill:#ffffff;fill-opacity:1"
     id="path24"
     d="m 311.87,134.45 c -1.29,-1.46 -2.91,-2.61 -4.85,-3.47 -1.94,-0.85 -4.18,-1.28 -6.72,-1.28 -2.31,0 -4.46,0.43 -6.45,1.28 -1.99,0.86 -3.72,2.05 -5.2,3.57 -1.48,1.53 -2.64,3.33 -3.47,5.41 -0.83,2.08 -1.25,4.34 -1.25,6.79 0,2.45 0.43,4.71 1.28,6.79 0.86,2.08 2.02,3.88 3.5,5.41 1.48,1.53 3.25,2.72 5.3,3.57 2.06,0.85 4.29,1.28 6.69,1.28 2.68,0 5.19,-0.53 7.52,-1.59 2.33,-1.06 4.47,-2.82 6.41,-5.27 l -3.54,-2.77 c -0.92,1.48 -2.28,2.78 -4.06,3.92 -1.78,1.13 -3.89,1.7 -6.34,1.7 -1.66,0 -3.21,-0.31 -4.65,-0.94 -1.43,-0.62 -2.68,-1.47 -3.74,-2.53 -1.06,-1.06 -1.9,-2.31 -2.5,-3.74 -0.6,-1.43 -0.92,-2.96 -0.97,-4.58 h 26.9 c 0.05,-0.42 0.07,-0.81 0.07,-1.18 0,-0.37 0,-0.72 0,-1.04 0,-2.22 -0.34,-4.3 -1.01,-6.24 -0.65,-1.93 -1.63,-3.63 -2.92,-5.09 z m -22.95,9.81 c 0.09,-1.39 0.44,-2.71 1.04,-3.99 0.6,-1.27 1.41,-2.4 2.43,-3.4 1.02,-1 2.19,-1.78 3.54,-2.36 1.34,-0.58 2.79,-0.87 4.37,-0.87 3.37,0 5.97,1.01 7.8,3.02 1.83,2.01 2.81,4.54 2.95,7.59 h -22.13 z"
     class="st0" /><path
     inkscape:connector-curvature="0"
     style="fill:#ffffff;fill-opacity:1"
     id="path26"
     d="m 347.5,136.15 h -0.14 c -1.39,-2.12 -3.19,-3.73 -5.41,-4.82 -2.22,-1.09 -4.51,-1.63 -6.86,-1.63 -2.54,0 -4.84,0.44 -6.9,1.32 -2.06,0.88 -3.81,2.08 -5.27,3.6 -1.46,1.53 -2.59,3.33 -3.4,5.41 -0.81,2.08 -1.21,4.32 -1.21,6.72 0,2.4 0.4,4.64 1.21,6.72 0.81,2.08 1.94,3.88 3.4,5.41 1.46,1.53 3.21,2.73 5.27,3.6 2.06,0.88 4.36,1.32 6.9,1.32 2.36,0 4.64,-0.53 6.86,-1.59 2.22,-1.06 4.02,-2.63 5.41,-4.71 h 0.14 v 5.48 h 4.71 v -52.41 h -4.71 z m -0.38,15.77 c -0.62,1.59 -1.49,2.97 -2.6,4.12 -1.11,1.16 -2.42,2.07 -3.95,2.74 -1.52,0.67 -3.19,1 -4.99,1 -1.94,0 -3.68,-0.33 -5.2,-1 -1.52,-0.67 -2.81,-1.59 -3.85,-2.77 -1.04,-1.18 -1.84,-2.56 -2.39,-4.16 -0.55,-1.6 -0.83,-3.29 -0.83,-5.1 0,-1.81 0.28,-3.5 0.83,-5.09 0.55,-1.6 1.35,-2.98 2.39,-4.16 1.04,-1.18 2.32,-2.11 3.85,-2.81 1.53,-0.7 3.26,-1.04 5.2,-1.04 1.8,0 3.47,0.34 4.99,1.01 1.53,0.67 2.84,1.59 3.95,2.77 1.11,1.18 1.98,2.57 2.6,4.16 0.62,1.6 0.94,3.32 0.94,5.16 -0.01,1.85 -0.32,3.58 -0.94,5.17 z"
     class="st0" /><path
     inkscape:connector-curvature="0"
     style="fill:#ffffff;fill-opacity:1"
     id="path28"
     d="m 141.74,49.27 c -0.03,0 -0.06,0 -0.09,0 -12.14,0.03 -23.41,6.45 -29.75,16.67 -6.37,-10.16 -17.64,-16.52 -29.75,-16.52 -0.03,0 -0.06,0 -0.08,0 -9.38,0.02 -18.19,3.7 -24.81,10.36 -6.63,6.64 -10.26,15.48 -10.24,24.86 0.08,34.02 23.26,52.48 52.6,75.85 3.61,2.88 7.33,5.84 11.15,8.94 l 1.43,1.16 1.4,-1.21 c 4.64,-4.02 9.21,-7.85 13.63,-11.56 27.78,-23.29 49.73,-41.69 49.65,-73.5 -0.05,-19.35 -15.8,-35.05 -35.14,-35.05 z M 124.4,154.44 c -3.99,3.35 -8.11,6.8 -12.29,10.4 -3.32,-2.69 -6.58,-5.28 -9.75,-7.8 -10.78,-8.58 -20.44,-16.3 -28.4,-24.19 H 94.9 l 3.28,-12.13 6.6,24.87 7.41,-17.27 2.5,4.53 h 34.12 c -7.13,7.08 -15.44,14.08 -24.41,21.59 z m 42.85,-46.28 h -19.4 c -0.99,-3.8 -4.42,-6.63 -8.52,-6.63 -4.87,0 -8.83,3.96 -8.83,8.83 0,4.87 3.96,8.83 8.83,8.83 4.11,0 7.54,-2.83 8.52,-6.63 h 17.13 c -3.15,5.56 -7.2,10.78 -11.92,15.89 H 117.3 l -5.59,-10.15 -5.93,13.82 -7.54,-28.42 -6.69,24.74 H 69.72 C 62.79,120.85 57.56,112.91 54.5,103.77 h 8.68 v 1.69 h 5.93 v 2.23 h 11.7 v -11.7 h -11.7 v 2.23 h -5.93 v 1.16 H 53.22 C 52.09,94.8 51.44,89.94 51.43,84.63 51.42,79.1 52.89,73.81 55.6,69.16 H 65.7 L 66,85.23 h 34 l 23.44,0.05 4.54,12.45 7.5,-20.64 3.45,9.29 h 33.47 c -0.27,8 -2.07,15.16 -5.15,21.78 z m -23.5,2.2 c 0,2.44 -1.99,4.43 -4.43,4.43 -2.44,0 -4.43,-1.99 -4.43,-4.43 0,-2.44 1.99,-4.43 4.43,-4.43 2.45,0 4.43,1.98 4.43,4.43 z m -1.77,-28.39 -6.55,-17.66 -7.46,20.54 -1.45,-3.97 -24.89,-0.05 v 0 H 70.32 L 70.01,64.75 H 58.68 c 0.54,-0.64 1.09,-1.27 1.69,-1.87 5.79,-5.82 13.5,-9.04 21.71,-9.06 11.88,0.03 22.76,6.9 27.84,17.65 l 2,4.24 1.98,-4.25 c 5.03,-10.78 15.92,-17.76 27.76,-17.79 0.03,0 0.05,0 0.08,0 16.12,0 29.36,12.48 30.61,28.3 z"
     class="st0" /></g>
</g>
</svg>